<svg width="18" height="13" viewBox="0 0 18 13" fill="none" xmlns="http://www.w3.org/2000/svg">
<path opacity="0.87" fill-rule="evenodd" clip-rule="evenodd" d="M1.33337 6.99951H16.6666C16.8507 6.99951 17 6.85022 17 6.66614C17 6.48218 16.8507 6.33289 16.6666 6.33289H1.33337C1.14929 6.33289 1 6.48218 1 6.66614C1 6.85022 1.14929 6.99951 1.33337 6.99951Z" fill="black" stroke="black"/>
<path opacity="0.87" fill-rule="evenodd" clip-rule="evenodd" d="M1.3334 6.99954C1.41873 6.99954 1.50406 6.96683 1.56937 6.90225L6.90274 1.56888C7.03275 1.43887 7.03275 1.22757 6.90274 1.09756C6.77274 0.96756 6.56131 0.96756 6.4313 1.09756L1.09805 6.43082C0.968048 6.56082 0.968048 6.77225 1.09805 6.90225C1.16275 6.96683 1.24808 6.99954 1.3334 6.99954Z" fill="black" stroke="black"/>
<path opacity="0.87" fill-rule="evenodd" clip-rule="evenodd" d="M6.66666 12.3329C6.75198 12.3329 6.83731 12.3001 6.90274 12.2354C7.03275 12.1054 7.03275 11.8941 6.90274 11.7641L1.56937 6.43076C1.43936 6.30075 1.22806 6.30075 1.09805 6.43076C0.968048 6.56076 0.968048 6.77219 1.09805 6.90219L6.4313 12.2354C6.496 12.3001 6.58133 12.3329 6.66666 12.3329Z" fill="black" stroke="black"/>
</svg>
